
        <svg xmlns="http://www.w3.org/2000/svg" xmlns:xlink="http://www.w3.org/1999/xlink" version="1.1" width="3185.5446672217226" 
        height="891.8754802169517" viewBox="0 0 3185.5446672217226 891.8754802169517">
			
			<g transform="scale(9.277233361086132) translate(10, 10)">
				<defs id="SvgjsDefs1013"></defs><g id="SvgjsG1014" featureKey="Ez5wPW-0" transform="matrix(0.8478699822824417,0,0,0.8478699822824417,-6.782959858259534,-4.239349911412209)" fill="#606060"><title xmlns="http://www.w3.org/2000/svg">ENT</title><desc xmlns="http://www.w3.org/2000/svg">Created with Sketch.</desc><g xmlns="http://www.w3.org/2000/svg" stroke="none" stroke-width="1" fill="none" fill-rule="evenodd" xmlns:sketch="http://www.bohemiancoding.com/sketch/ns" sketch:type="MSPage"><g sketch:type="MSArtboardGroup"><g sketch:type="MSLayerGroup" transform="translate(8.000000, 5.000000)"><path d="M53.445,88.7967052 L53.445,74.9106936 L70.0329,73.9295376 C71.52495,73.842659 72.6831,72.6185549 72.66945,71.1457803 L72.504075,53.1842775 L79.092825,53.1842775 C79.980075,53.1842775 80.8122,52.7727746 81.341925,52.074104 C81.87165,51.3775145 82.034925,50.4738728 81.786075,49.6368208 C81.747225,49.5083237 77.905275,36.7330058 74.865525,26.4365896 C73.01385,20.1527168 68.663175,13.7876879 62.939625,8.9750289 C58.072875,4.88080925 49.88025,0 38.532375,0 C29.008875,0 19.2801,3.92358382 11.83455,10.7625434 C4.31445,17.6743353 0,26.7768208 0,35.7362428 C0,44.1208092 2.6922,52.4330636 7.77735,59.7745665 C10.458,63.6398844 13.144425,66.2993064 14.581875,67.5957225 L14.581875,83.1121387" stroke="#606060" stroke-width="2" stroke-linecap="round" sketch:type="MSShapeGroup"></path><ellipse fill="#606060" sketch:type="MSShapeGroup" cx="75.6" cy="45.2601156" rx="2.625" ry="2.60115607"></ellipse><ellipse fill="#606060" sketch:type="MSShapeGroup" cx="20.475" cy="32.2543353" rx="2.625" ry="2.60115607"></ellipse><ellipse fill="#606060" sketch:type="MSShapeGroup" cx="33.6" cy="83.7572254" rx="2.625" ry="2.60115607"></ellipse><path d="M33.6,83.7572254 L20.475,32.2543353 L75.6,45.2601156" stroke="#606060" stroke-width="2" sketch:type="MSShapeGroup"></path></g></g></g></g><g id="SvgjsG1015" featureKey="nameLeftFeature-0" transform="matrix(1.4723005781276204,0,0,1.4723005781276204,88.37023985070597,14.642851619912578)" fill="#156efd"><path d="M3.1186 6.441000000000001 c0.54237 0 0.84712 0.37271 0.84712 0.86424 l0 14.135 c-0.016949 1.6441 -0.88136 3.0169 -2.2034 3.7288 c-0.20339 0.10186 -0.35593 0.051014 -0.45746 -0.11848 l-0.83051 -1.5932 c-0.10153 -0.20339 -0.033732 -0.33898 0.16966 -0.44068 c0.54237 -0.30508 0.89814 -0.86441 0.89814 -1.5932 l0 -13.525 c-0.016784 -0.45763 -0.08458 -0.72881 -0.13543 -1.0339 c-0.050847 -0.22034 0.016949 -0.42373 0.20339 -0.42373 l1.5085 0 z M15.186433898305085 8.78 l-6.1697 -0.00033103 l0 3.4068 l3.322 0 c0.18644 0 0.33898 0.15254 0.33898 0.33915 l0 1.6778 c0 0.20339 -0.13559 0.3222 -0.33898 0.3222 l-3.322 0 l0 3.1356 l6.1695 0 c0.18644 0 0.33881 0.15238 0.33881 0.33881 l0 1.6613 c0 0.18644 -0.15238 0.33881 -0.33881 0.33881 l-8.2542 0 c-0.18644 0 -0.33898 -0.15238 -0.33898 -0.33881 l0 -12.898 c0 -0.16949 0.13559 -0.32203 0.3222 -0.32203 l8.2712 0 c0.18644 0 0.33881 0.15254 0.33881 0.32203 l0 1.6949 c0 0.18644 -0.15238 0.32203 -0.33881 0.32203 z M30.779169491525426 19.62712 c0.10169 0.20339 0.034229 0.37271 -0.20305 0.37271 l-1.9831 0 c-0.16949 0 -0.27119 -0.08458 -0.33898 -0.22017 l-0.91525 -1.9322 l-6.5256 0 l-0.91525 1.9322 c-0.067797 0.13559 -0.18644 0.22017 -0.33898 0.22017 l-2 0 c-0.20339 0 -0.32203 -0.16933 -0.22034 -0.37271 l6.3898 -13.102 c0.067797 -0.11881 0.15238 -0.16966 0.23712 -0.16966 l0.20339 0 c0.10169 0 0.16949 0.050847 0.23729 0.16966 z M21.847669491525426 15.6441 l4.4576 0 l-2.2203 -4.7288 z M44.23742372881357 6.441000000000001 c0.16949 0 0.33915 0.15254 0.33915 0.32203 l0 12.915 c0 0.16949 -0.13559 0.32186 -0.32203 0.32186 l-0.55932 0 c-0.45763 0 -0.94915 -0.32203 -1.5593 -1 l-6.9322 -7.7456 l0 8.4068 c0 0.16949 -0.15254 0.32203 -0.33915 0.32203 l-1.7288 0.016784 c-0.18644 0 -0.33898 -0.15238 -0.33898 -0.33881 l0 -12.898 c0 -0.16949 0.15254 -0.32203 0.32203 -0.32203 l1 0 c0.18644 0 0.30508 0.067797 0.45763 0.25424 l7.5763 8.678 l0 -8.6102 c0 -0.16949 0.13559 -0.32203 0.32203 -0.32203 l1.7627 0 z M60.50846779661018 8.78 l-6.1697 -0.00033103 l0 3.4068 l3.322 0 c0.18644 0 0.33898 0.15254 0.33898 0.33915 l0 1.6778 c0 0.20339 -0.13559 0.3222 -0.33898 0.3222 l-3.322 0 l0 3.1356 l6.1695 0 c0.18644 0 0.33881 0.15238 0.33881 0.33881 l0 1.6613 c0 0.18644 -0.15238 0.33881 -0.33881 0.33881 l-8.2542 0 c-0.18644 0 -0.33898 -0.15238 -0.33898 -0.33881 l0 -12.898 c0 -0.16949 0.13559 -0.32203 0.3222 -0.32203 l8.2712 0 c0.18644 0 0.33881 0.15254 0.33881 0.32203 l0 1.6949 c0 0.18644 -0.15238 0.32203 -0.33881 0.32203 z M74.64420338983051 6.441000000000001 c0.16949 0 0.33915 0.15254 0.33915 0.32203 l0 12.915 c0 0.16949 -0.13559 0.32186 -0.32203 0.32186 l-0.55932 0 c-0.45763 0 -0.94915 -0.32203 -1.5593 -1 l-6.9322 -7.7456 l0 8.4068 c0 0.16949 -0.15254 0.32203 -0.33915 0.32203 l-1.7288 0.016784 c-0.18644 0 -0.33898 -0.15238 -0.33898 -0.33881 l0 -12.898 c0 -0.16949 0.15254 -0.32203 0.32203 -0.32203 l1 0 c0.18644 0 0.30508 0.067797 0.45763 0.25424 l7.5763 8.678 l0 -8.6102 c0 -0.16949 0.13559 -0.32203 0.32203 -0.32203 l1.7627 0 z M87.4232372881356 6.441000000000001 c0.16949 0 0.32203 0.13592 0.32203 0.32237 l0 1.6949 c0 0.16933 -0.15254 0.32186 -0.32203 0.32186 l-3.8305 0 l0 10.881 c0 0.20339 -0.13559 0.33881 -0.32203 0.33881 l-1.2542 0 c-0.54237 0 -0.84746 -0.37288 -0.84746 -0.86441 l0 -10.356 l-3.8136 0 c-0.16949 0 -0.33898 -0.13559 -0.33898 -0.32203 l0 -1.678 c0 -0.18644 0.15254 -0.33898 0.33898 -0.33898 l10.068 0 z"></path></g><g id="SvgjsG1016" featureKey="nameRightFeature-0" transform="matrix(1.469024547585177,0,0,1.469024547585177,230.38100494738634,14.712812761229511)" fill="#156efd"><path d="M17.084728813559323 17.729 c0.11864 0.08458 0.084746 0.22017 -0.067797 0.37271 c-1.2544 1.2542 -2.8814 2.0168 -4.8983 2.0168 c-3.8136 0 -6.9322 -3.0168 -6.9322 -6.8812 c0 -3.8475 3.1186 -6.9153 6.9322 -6.9153 c1.9322 0 3.661 0.74576 4.9322 2.0169 c0.15254 0.15254 0.16949 0.27119 0.067797 0.35593 l-0.71186 0.59322 c-0.11864 0.10169 -0.22034 0.10169 -0.33898 -0.016949 c-0.71186 -0.74559 -2.1186 -1.6608 -3.8475 -1.6608 c-3.678 0 -5.7119 2.9831 -5.7119 5.6271 c0 2.678 2.0339 5.5932 5.7119 5.5932 c1.7288 0 3.0508 -0.88136 3.7966 -1.6271 c0.13559 -0.13559 0.23729 -0.16949 0.35593 -0.067797 z M27.220301694915253 18.712 c0.13559 0 0.20339 0.084912 0.20339 0.23729 l0 0.83051 c0 0.15254 -0.067797 0.22017 -0.20339 0.22017 l-7.9492 0 c-0.15254 0 -0.20339 -0.10153 -0.20339 -0.22017 l0 -13.119 c0 -0.15254 0.067797 -0.22034 0.22034 -0.22034 l0.89831 0 c0.13559 0 0.22034 0.067797 0.22034 0.22034 l0 12.051 l6.8136 0 z M30.796632203389827 6.441000000000001 l-0.86441 0 c-0.15254 0 -0.22034 0.067797 -0.22034 0.22034 l0 13.119 c0 0.13559 0.067797 0.22017 0.22034 0.22017 l0.88136 0 c0.11864 0 0.20339 -0.08458 0.20339 -0.22017 l0 -13.119 c0 -0.15254 -0.084746 -0.22034 -0.22034 -0.22034 z M45.050881355932205 6.441000000000001 c0.11864 0 0.20356 0.067631 0.20356 0.18627 l0 13.186 c0 0.11881 -0.084746 0.18644 -0.20339 0.18644 l-0.35593 0 c-0.25441 0 -0.49169 -0.16933 -0.81373 -0.52525 l-8.9153 -10.525 l0 10.831 c0 0.13559 -0.084746 0.22017 -0.22034 0.22017 l-0.88136 0 c-0.15254 0 -0.22034 -0.08458 -0.22034 -0.22017 l0 -13.136 c0 -0.11864 0.067797 -0.20339 0.20339 -0.20339 l0.55932 0 c0.11864 0 0.20339 0.050847 0.32203 0.18644 l9.2034 10.932 l0 -10.932 c0 -0.11864 0.067797 -0.18644 0.18644 -0.18644 l0.9322 0 z M48.96612372881356 6.441000000000001 l-0.86441 0 c-0.15254 0 -0.22034 0.067797 -0.22034 0.22034 l0 13.119 c0 0.13559 0.067797 0.22017 0.22034 0.22017 l0.88136 0 c0.11864 0 0.20339 -0.08458 0.20339 -0.22017 l0 -13.119 c0 -0.15254 -0.084746 -0.22034 -0.22034 -0.22034 z M63.20337288135593 17.729 c0.11864 0.08458 0.084746 0.22017 -0.067797 0.37271 c-1.2544 1.2542 -2.8814 2.0168 -4.8983 2.0168 c-3.8136 0 -6.9322 -3.0168 -6.9322 -6.8812 c0 -3.8475 3.1186 -6.9153 6.9322 -6.9153 c1.9322 0 3.661 0.74576 4.9322 2.0169 c0.15254 0.15254 0.16949 0.27119 0.067797 0.35593 l-0.71186 0.59322 c-0.11864 0.10169 -0.22034 0.10169 -0.33898 -0.016949 c-0.71186 -0.74559 -2.1186 -1.6608 -3.8475 -1.6608 c-3.678 0 -5.7119 2.9831 -5.7119 5.6271 c0 2.678 2.0339 5.5932 5.7119 5.5932 c1.7288 0 3.0508 -0.88136 3.7966 -1.6271 c0.13559 -0.13559 0.23729 -0.16949 0.35593 -0.067797 z"></path></g>
			</g>
		</svg>
	