<?xml version="1.0" ?><!DOCTYPE svg  PUBLIC '-//W3C//DTD SVG 1.1//EN'  'http://www.w3.org/Graphics/SVG/1.1/DTD/svg11.dtd'><svg enable-background="new 0 0 64 64" height="64px" version="1.1" viewBox="0 0 64 64" width="64px" xml:space="preserve" xmlns="http://www.w3.org/2000/svg" xmlns:xlink="http://www.w3.org/1999/xlink"><g id="sick_x2C__runny_nose"><g id="XMLID_653_"><g id="creative_idea_3_"><g id="Public_Relations_4_"><rect fill="#37474F" height="6.833" transform="matrix(0.9946 0.1036 -0.1036 0.9946 5.9601 -3.4865)" width="1" x="36.054" y="52.235"/><path d="M43.792,51.008c-0.001,0-0.003,0-0.004,0L37.199,51l0.001-1l6.589,0.008c0.001,0,0.002,0,0.003,0      c0.731,0,1.397-0.304,1.875-0.856c0.484-0.559,0.7-1.304,0.592-2.044c-0.299-2.049-0.117-3.532,0.54-4.408l0.8,0.6      c-0.484,0.646-0.605,1.913-0.35,3.664c0.149,1.028-0.151,2.064-0.826,2.843C45.762,50.57,44.803,51.008,43.792,51.008z" fill="#37474F"/><path d="M15.356,59.153l-0.979-0.207c1.369-6.471,2.491-14.749,1.148-16.782l-0.14-0.212      C12.843,38.106,9,32.295,9,24.121C9,13.25,17.28,5.052,28.259,5.052c12.137,0,19.979,7.126,19.979,18.154l-0.18,3.241      l4.714,9.427c0.218,0.485,0.177,1.02-0.101,1.448c-0.277,0.429-0.748,0.685-1.259,0.685h-4.217      c0.008,0.774,0.078,2.308,0.469,3.313l-0.411,0.678l-4.5,0.5l-0.11-0.994l3.895-0.433c-0.401-1.541-0.342-3.488-0.339-3.581      l0.5-0.483h4.714c0.173,0,0.326-0.083,0.42-0.228c0.094-0.145,0.107-0.318,0.036-0.476l-4.765-9.527l-0.052-0.251l0.187-3.346      c-0.001-8.265-4.987-17.126-18.98-17.126C17.85,6.052,10,13.82,10,24.121c0,7.874,3.743,13.534,6.22,17.28l0.141,0.212      C18.261,44.492,16.072,55.766,15.356,59.153z" fill="#37474F"/></g><path d="M30.186,51.014c-3.026-0.009-5.486-2.476-5.486-5.5V45h1v0.514c0,2.474,2.013,4.493,4.487,4.5L42.699,50     l0.001,1L30.186,51.014z" fill="#37474F"/></g><polygon fill="#37474F" points="45.199,28 40.699,28 40.699,27 43.238,27 39.46,24.939 39.938,24.061 45.438,27.061   "/></g><g><path d="M52,51c-1.654,0-3-1.346-3-3c0-1.455,2.29-6.185,2.551-6.719L52,40.361l0.449,0.92    C52.71,41.815,55,46.545,55,48C55,49.654,53.654,51,52,51z M52,42.663c-0.909,1.952-2,4.552-2,5.337c0,1.103,0.897,2,2,2    s2-0.897,2-2C54,47.215,52.909,44.614,52,42.663z" fill="#37474F"/></g></g></svg>